<?xml version="1.0" encoding="utf-8"?>
<!-- Generator: Adobe Illustrator 27.1.1, SVG Export Plug-In . SVG Version: 6.00 Build 0)  -->
<svg version="1.1" id="Livello_1" xmlns="http://www.w3.org/2000/svg" xmlns:xlink="http://www.w3.org/1999/xlink" x="0px" y="0px"
	 viewBox="0 0 595.28 595.28" style="enable-background:new 0 0 595.28 595.28;" xml:space="preserve">
<style type="text/css">
	.st0{fill:#FDD9B7;}
</style>
<path class="st0" d="M362.82,39.88L362.82,39.88c17.77,20.35,44.03,31.22,71,29.41l0,0c52.3-3.52,95.7,39.87,92.17,92.17l0,0
	c-1.82,26.96,9.06,53.22,29.41,71l0,0c39.47,34.49,39.47,95.87,0,130.36l0,0c-20.35,17.77-31.22,44.03-29.41,71l0,0
	c3.52,52.3-39.87,95.7-92.17,92.17l0,0c-26.96-1.82-53.22,9.06-71,29.41l0,0c-34.49,39.47-95.87,39.47-130.36,0l0,0
	c-17.77-20.35-44.03-31.22-71-29.41l0,0c-52.3,3.52-95.7-39.87-92.17-92.17l0,0c1.82-26.96-9.06-53.22-29.41-71l0,0
	c-39.47-34.49-39.47-95.87,0-130.36l0,0c20.35-17.77,31.22-44.03,29.41-71l0,0c-3.52-52.3,39.87-95.7,92.17-92.17l0,0
	c26.96,1.82,53.22-9.06,71-29.41l0,0C266.95,0.41,328.33,0.41,362.82,39.88z"/>
</svg>
