<?xml version="1.0" encoding="utf-8"?>
<!-- Generator: Adobe Illustrator 27.2.0, SVG Export Plug-In . SVG Version: 6.00 Build 0)  -->
<svg version="1.1" id="Livello_1" xmlns="http://www.w3.org/2000/svg" xmlns:xlink="http://www.w3.org/1999/xlink" x="0px" y="0px"
	 viewBox="0 0 425.2 425.2" style="enable-background:new 0 0 425.2 425.2;" xml:space="preserve">
<style type="text/css">
	.st0{fill:#F9C3B3;}
</style>
<g>
	<path class="st0" d="M316.34,302.37c0,32.01-26.04,58.05-58.05,58.05H122.82c-32.01,0-58.05-26.04-58.05-58.05V166.9
		c0-32.01,26.04-58.05,58.05-58.05h108.31V46.42H122.82C56.39,46.42,2.34,100.47,2.34,166.9v135.47
		c0,66.43,54.05,120.48,120.48,120.48h135.47c66.43,0,120.48-54.05,120.48-120.48V194.06h-62.43V302.37z"/>
	<polygon class="st0" points="272.12,1.9 272.12,66.99 312.19,66.99 167.55,211.63 213.57,257.65 358.21,113.01 358.21,153.07 
		423.3,153.07 423.3,1.9 	"/>
</g>
</svg>
