<?xml version="1.0" encoding="utf-8"?>
<!-- Generator: Adobe Illustrator 27.2.0, SVG Export Plug-In . SVG Version: 6.00 Build 0)  -->
<svg version="1.1" id="Livello_1" xmlns="http://www.w3.org/2000/svg" xmlns:xlink="http://www.w3.org/1999/xlink" x="0px" y="0px"
	 viewBox="0 0 500 500" style="enable-background:new 0 0 500 500;" xml:space="preserve">
<style type="text/css">
	.st0{fill:#FEE4C3;}
</style>
<path class="st0" d="M271.46,8.66L271.46,8.66c16.97-12.25,40.78-7.51,51.77,10.3l0,0c8.16,13.22,23.86,19.72,38.98,16.15l0,0
	c20.37-4.82,40.55,8.66,43.89,29.33v0c2.48,15.33,14.5,27.35,29.83,29.83l0,0c20.66,3.34,34.15,23.52,29.33,43.89l0,0
	c-3.58,15.11,2.93,30.82,16.15,38.98l0,0c17.81,10.99,22.55,34.8,10.3,51.77l0,0c-9.09,12.6-9.09,29.6,0,42.19l0,0
	c12.25,16.97,7.51,40.78-10.3,51.77l0,0c-13.22,8.16-19.72,23.86-16.15,38.98l0,0c4.82,20.37-8.66,40.55-29.33,43.89h0
	c-15.33,2.48-27.35,14.5-29.83,29.83v0c-3.34,20.66-23.52,34.15-43.89,29.33l0,0c-15.11-3.58-30.82,2.93-38.98,16.15l0,0
	c-10.99,17.81-34.8,22.55-51.77,10.3l0,0c-12.6-9.09-29.6-9.09-42.19,0l0,0c-16.97,12.25-40.78,7.51-51.77-10.3l0,0
	c-8.16-13.22-23.87-19.72-38.98-16.15l0,0c-20.37,4.82-40.55-8.66-43.89-29.33l0,0c-2.48-15.33-14.5-27.35-29.83-29.83h0
	c-20.66-3.34-34.15-23.52-29.33-43.89l0,0c3.58-15.11-2.93-30.82-16.15-38.98l0,0C1.5,311.87-3.23,288.07,9.02,271.1l0,0
	c9.09-12.6,9.09-29.6,0-42.19l0,0c-12.25-16.97-7.51-40.78,10.3-51.77l0,0c13.22-8.16,19.72-23.87,16.15-38.98l0,0
	c-4.82-20.37,8.66-40.55,29.33-43.89l0,0c15.33-2.48,27.35-14.5,29.83-29.83l0,0c3.34-20.66,23.52-34.15,43.89-29.33l0,0
	c15.11,3.58,30.82-2.93,38.98-16.15l0,0c10.99-17.81,34.8-22.55,51.77-10.3l0,0C241.86,17.75,258.86,17.75,271.46,8.66z"/>
</svg>
